#N canvas 366 115 416 282 10;
#X obj 33 80 bng 15 250 50 0 empty empty empty 17 7 0 10 -262144 -1
-1;
#X floatatom 60 77 5 0 0 0 - - -;
#X floatatom 81 101 5 0 0 0 - - -;
#X obj 60 120 jn 4;
#X floatatom 60 147 5 0 0 0 - - -;
#X text 115 76 n;
#X text 95 76 x;
#X text 212 252 2013 Matthias Kronlachner;
#X floatatom 317 78 5 0 0 0 - - -;
#X floatatom 338 102 5 0 0 0 - - -;
#X floatatom 317 148 5 0 0 0 - - -;
#X text 373 100 n;
#X text 352 77 x;
#X obj 317 121 jn 0;
#X floatatom 228 78 5 0 0 0 - - -;
#X floatatom 249 102 5 0 0 0 - - -;
#X floatatom 228 148 5 0 0 0 - - -;
#X text 283 101 n;
#X text 263 77 x;
#X obj 228 121 jn 1;
#X text 16 4 Jn(x);
#X text 290 33 1st argument: n;
#X text 64 3 nth Bessel function of first kind evaluated at x;
#X connect 0 0 3 0;
#X connect 1 0 3 0;
#X connect 2 0 3 1;
#X connect 3 0 4 0;
#X connect 8 0 13 0;
#X connect 9 0 13 1;
#X connect 13 0 10 0;
#X connect 14 0 19 0;
#X connect 15 0 19 1;
#X connect 19 0 16 0;
